<?xml version="1.0" encoding="UTF-8" standalone="no"?>
<!DOCTYPE svg PUBLIC "-//W3C//DTD SVG 1.1//EN" "http://www.w3.org/Graphics/SVG/1.1/DTD/svg11.dtd">
<!-- Created with Vectornator (http://vectornator.io/) -->
<svg height="100%" stroke-miterlimit="10" style="fill-rule:nonzero;clip-rule:evenodd;stroke-linecap:round;stroke-linejoin:round;" version="1.1" viewBox="0 0 24 24" width="100%" xml:space="preserve" xmlns="http://www.w3.org/2000/svg" xmlns:vectornator="http://vectornator.io" xmlns:xlink="http://www.w3.org/1999/xlink">
<defs/>
<g id="Слой-1" vectornator:layerName="Слой 1">
<path d="M8.3125 0C1.5885 0 0 1.5885 0 8.3125L0 15.6875C0 22.4115 1.5885 24 8.3125 24L15.6875 24C22.4115 24 24 22.4115 24 15.6875L24 8.3125C24 1.5885 22.3945 0 15.6875 0L8.3125 0ZM10.375 5.09375L13.0938 5.09375C13.6812 5.09372 14.2249 5.41841 14.5 5.9375L19.6562 14.9062C19.8166 15.1543 19.9062 15.4332 19.9062 15.75C19.9062 16.1087 19.8412 16.3018 19.5938 16.7188L18.3438 18.9062L10.375 5.09375ZM9.0625 7.3125L12.625 13.5C12.625 13.5 5.5 13.5 5.5 13.5L9.0625 7.3125ZM4.21875 15.75C4.21875 15.75 13.9375 15.75 13.9375 15.75L15.75 18.9062L6.9375 18.9062C6.33855 18.9061 5.80083 18.5661 5.53125 18.0312L4.21875 15.75Z" fill="#ffffff" fill-rule="evenodd" opacity="1" stroke="none"/>
</g>
</svg>
