<?xml version="1.0" encoding="UTF-8" standalone="no"?>
<!DOCTYPE svg PUBLIC "-//W3C//DTD SVG 1.1//EN" "http://www.w3.org/Graphics/SVG/1.1/DTD/svg11.dtd">
<!-- Created with Vectornator (http://vectornator.io/) -->
<svg height="100%" stroke-miterlimit="10" style="fill-rule:nonzero;clip-rule:evenodd;stroke-linecap:round;stroke-linejoin:round;" version="1.1" viewBox="0 0 24 24" width="100%" xml:space="preserve" xmlns="http://www.w3.org/2000/svg" xmlns:vectornator="http://vectornator.io" xmlns:xlink="http://www.w3.org/1999/xlink">
<defs/>
<g id="Слой-1" vectornator:layerName="Слой 1">
<path d="M8.3125 0C1.5885 0 0 1.5885 0 8.3125L0 15.6875C0 22.4115 1.5885 24 8.3125 24L15.6875 24C22.4115 24 24 22.4115 24 15.6875L24 8.3125C24 1.5885 22.3945 0 15.6875 0L8.3125 0ZM4.0625 7L8.6875 7C9.15484 7 9.58263 7.03979 9.96875 7.125C10.3529 7.21154 10.6612 7.34485 10.9375 7.53125C11.2104 7.71765 11.4426 7.96836 11.5938 8.28125C11.7435 8.59414 11.8125 8.9848 11.8125 9.4375C11.8125 9.93014 11.6931 10.3546 11.4688 10.6875C11.2437 11.0204 10.9115 11.287 10.4688 11.5C11.0719 11.6731 11.5156 11.9735 11.8125 12.4062C12.1107 12.8456 12.25 13.3629 12.25 13.9688C12.25 14.468 12.1864 14.8905 12 15.25C11.8136 15.6162 11.545 15.9232 11.2188 16.1562C10.8992 16.3879 10.5065 16.5451 10.0938 16.6562C9.68765 16.7661 9.2818 16.8438 8.84375 16.8438L4.0625 16.8438L4.0625 7ZM14.4688 7.65625L18.4375 7.65625L18.4375 8.625L14.4688 8.625L14.4688 7.65625ZM6.21875 8.6875L6.21875 10.9688L8.40625 10.9688C8.78838 10.9687 9.0941 10.8726 9.34375 10.6875C9.59273 10.5078 9.71875 10.2239 9.71875 9.8125C9.71875 9.58349 9.66698 9.39713 9.59375 9.25C9.50721 9.10354 9.38315 8.98747 9.25 8.90625C9.1102 8.8237 8.961 8.75004 8.78125 8.71875C8.6015 8.68347 8.40516 8.6875 8.21875 8.6875L6.21875 8.6875ZM16.5625 9.53125C17.1683 9.53125 17.6969 9.636 18.1562 9.875C18.6023 10.1013 18.9571 10.4264 19.25 10.8125C19.5429 11.2026 19.7485 11.6503 19.875 12.1562C20.0015 12.6555 20.0579 13.1595 20.0312 13.7188L14.9062 13.7188C14.9062 14.278 15.0887 14.8055 15.375 15.0938C15.667 15.3662 16.0594 15.5313 16.5938 15.5312C16.9865 15.5312 17.3387 15.4491 17.625 15.25C17.9073 15.0569 18.0584 14.8134 18.125 14.5938L19.8438 14.5938C19.5755 15.4459 19.161 16.0714 18.5938 16.4375C18.0279 16.8103 17.3275 17 16.5312 17C15.974 17 15.4893 16.8985 15.0312 16.7188C14.5832 16.539 14.1945 16.295 13.875 15.9688C13.5661 15.6425 13.3253 15.2406 13.1562 14.7812C12.9878 14.3219 12.9062 13.8271 12.9062 13.2812C12.9062 12.7467 13.0091 12.2406 13.1875 11.7812C13.3672 11.3152 13.6206 10.9333 13.9375 10.5938C14.267 10.2542 14.6457 10.0116 15.0938 9.8125C15.5418 9.61345 16.0166 9.53125 16.5625 9.53125ZM16.4688 10.9688C16.1572 10.9688 15.8945 11.0158 15.6875 11.125C15.4864 11.2249 15.3452 11.3715 15.2188 11.5312C15.0923 11.691 14.9874 11.8515 14.9375 12.0312C14.8876 12.2043 14.8537 12.3602 14.8438 12.5L18.0312 12.5C17.9846 12.0007 17.7955 11.6346 17.5625 11.375C17.3282 11.1187 16.9461 10.9688 16.4688 10.9688ZM6.21875 12.4375L6.21875 15.1562L8.53125 15.125C8.74229 15.125 8.9346 15.1044 9.125 15.0625C9.31806 15.0226 9.48187 14.9649 9.625 14.875C9.7648 14.7851 9.88221 14.6698 9.96875 14.5C10.0553 14.3402 10.0937 14.1034 10.0938 13.8438C10.0938 13.3445 9.96711 13.0009 9.6875 12.7812C9.40124 12.5682 9.02851 12.4375 8.5625 12.4375L6.21875 12.4375Z" fill="#ffffff" fill-rule="evenodd" opacity="1" stroke="none"/>
</g>
</svg>
