<?xml version="1.0" encoding="UTF-8" standalone="no"?>
<!DOCTYPE svg PUBLIC "-//W3C//DTD SVG 1.1//EN" "http://www.w3.org/Graphics/SVG/1.1/DTD/svg11.dtd">
<!-- Created with Vectornator (http://vectornator.io/) -->
<svg height="100%" stroke-miterlimit="10" style="fill-rule:nonzero;clip-rule:evenodd;stroke-linecap:round;stroke-linejoin:round;" version="1.1" viewBox="0 0 24 24" width="100%" xml:space="preserve" xmlns="http://www.w3.org/2000/svg" xmlns:vectornator="http://vectornator.io" xmlns:xlink="http://www.w3.org/1999/xlink">
<defs/>
<g id="Слой-1" vectornator:layerName="Слой 1">
<path d="M8.3125 0C1.5885 0 0 1.5885 0 8.3125L0 15.6875C0 22.4115 1.5885 24 8.3125 24L15.6875 24C22.4115 24 24 22.4115 24 15.6875L24 8.3125C24 1.5885 22.3945 0 15.6875 0L8.3125 0ZM15.3125 4C16.1679 4.03952 16.7376 4.17605 17.25 4.375C17.7799 4.5793 18.2407 4.86571 18.6875 5.3125C19.1336 5.75929 19.42 6.22149 19.625 6.75C19.8233 7.26177 19.9598 7.8321 20 8.6875C20.0382 9.54491 20.0312 9.81629 20.0312 12C20.0313 14.1837 20.0402 14.4551 20 15.3125C19.9605 16.1679 19.8233 16.7376 19.625 17.25C19.4207 17.7799 19.1336 18.2407 18.6875 18.6875C18.2407 19.1336 17.7778 19.42 17.25 19.625C16.7376 19.8233 16.1679 19.9598 15.3125 20C14.4551 20.0382 14.1837 20.0312 12 20.0312C9.81629 20.0313 9.54491 20.0402 8.6875 20C7.8321 19.9605 7.26311 19.8233 6.75 19.625C6.22082 19.4207 5.75929 19.1336 5.3125 18.6875C4.86571 18.2407 4.57997 17.7778 4.375 17.25C4.17605 16.7376 4.04019 16.1679 4 15.3125C3.96182 14.4551 3.96875 14.1837 3.96875 12C3.96875 9.81629 3.95981 9.54491 4 8.6875C4.03952 7.83143 4.17605 7.26244 4.375 6.75C4.5793 6.22082 4.86571 5.75929 5.3125 5.3125C5.75929 4.86571 6.22149 4.57997 6.75 4.375C7.26244 4.17605 7.83143 4.04019 8.6875 4C9.54491 3.96182 14.4551 3.95981 15.3125 4ZM11.9688 5.375C9.8192 5.375 9.57281 5.40736 8.71875 5.4375C7.93503 5.47769 7.50009 5.60755 7.21875 5.71875C6.8376 5.85875 6.59317 6.03183 6.3125 6.3125C6.03049 6.59451 5.82817 6.86819 5.6875 7.25C5.57697 7.53134 5.44711 7.93502 5.40625 8.71875C5.37611 9.57281 5.375 9.85916 5.375 12C5.375 14.1402 5.37611 14.406 5.40625 15.25C5.44711 16.0337 5.57697 16.4374 5.6875 16.7188C5.82817 17.0912 6.03049 17.3756 6.3125 17.6562C6.59317 17.9376 6.83761 18.1 7.21875 18.25C7.50009 18.3605 7.93435 18.4904 8.71875 18.5312C9.57147 18.5708 9.81786 18.5938 11.9688 18.5938C14.119 18.5937 14.3966 18.5694 15.25 18.5312C16.0337 18.4957 16.4374 18.3911 16.7188 18.2812C17.0912 18.1359 17.3756 17.9369 17.6562 17.6562C17.9376 17.3736 18.1 17.1265 18.25 16.75C18.3605 16.4673 18.4904 16.0337 18.5312 15.25C18.5708 14.4026 18.5938 14.1462 18.5938 12C18.5937 9.8538 18.5694 9.59803 18.5312 8.75C18.4957 7.96627 18.3911 7.53268 18.2812 7.25C18.1359 6.87354 17.9369 6.62509 17.6562 6.34375C17.3736 6.06308 17.1265 5.86411 16.75 5.71875C16.4673 5.60755 16.0337 5.50559 15.25 5.46875C14.4026 5.43191 11.9688 5.375 11.9688 5.375ZM16.2812 6.75C16.8124 6.74933 17.25 7.18689 17.25 7.71875C17.25 8.25128 16.8131 8.6875 16.2812 8.6875C15.7487 8.6875 15.3125 8.25061 15.3125 7.71875C15.3125 7.18689 15.7494 6.75 16.2812 6.75ZM12 7.875C14.2788 7.875 16.125 9.71916 16.125 12C16.125 14.2788 14.2808 16.125 12 16.125C9.72117 16.125 7.875 14.2808 7.875 12C7.875 9.72117 9.71916 7.875 12 7.875ZM12 9.3125C10.5196 9.3125 9.3125 10.5196 9.3125 12C9.3125 13.4804 10.5196 14.6875 12 14.6875C13.4804 14.6875 14.6875 13.4804 14.6875 12C14.6875 10.5196 13.4804 9.3125 12 9.3125Z" fill="#ffffff" fill-rule="evenodd" opacity="1" stroke="none"/>
</g>
</svg>
