<?xml version="1.0" encoding="UTF-8" standalone="no"?>
<!DOCTYPE svg PUBLIC "-//W3C//DTD SVG 1.1//EN" "http://www.w3.org/Graphics/SVG/1.1/DTD/svg11.dtd">
<!-- Created with Vectornator (http://vectornator.io/) -->
<svg height="100%" stroke-miterlimit="10" style="fill-rule:nonzero;clip-rule:evenodd;stroke-linecap:round;stroke-linejoin:round;" version="1.1" viewBox="0 0 24 24" width="100%" xml:space="preserve" xmlns="http://www.w3.org/2000/svg" xmlns:vectornator="http://vectornator.io" xmlns:xlink="http://www.w3.org/1999/xlink">
<defs/>
<clipPath id="ArtboardFrame">
<rect height="24" width="24" x="0" y="0"/>
</clipPath>
<g clip-path="url(#ArtboardFrame)" id="Untitled" vectornator:layerName="Untitled">
<path d="M8.3125 0C6.2045 0.042 3.3-0.0509999 1.625 1.625C-0.051 3.3 0.0419995 6.2045 0 8.3125C-0.049 10.7685-0.079 13.2325 0 15.6875C0.079 18.1355-0.0132508 21.8372 2.71875 23.1562C4.35475 23.9462 6.5555 23.976 8.3125 24C10.7685 24.033 13.2315 24.049 15.6875 24C17.7955 23.958 20.699 24.051 22.375 22.375C24.05 20.7 23.958 17.7955 24 15.6875C24.049 13.2315 24.036 10.7685 24 8.3125C23.963 5.7775 23.849 2.006 21.125 0.75C19.711 0.097 16.5715-7.94729e-08 15.6875 0C13.2315-0.038 10.7685-0.049 8.3125 0ZM17.9375 6.0625C18.0473 6.0625 18.3041 6.08704 18.4688 6.21875C18.6005 6.32851 18.6343 6.48399 18.6562 6.59375C18.6782 6.70351 18.6782 6.91814 18.6562 7.09375C18.4587 9.17914 17.5953 14.2356 17.1562 16.5625C16.9697 17.5503 16.6325 17.9046 16.2812 17.9375C15.5129 18.0034 14.9229 17.4204 14.1875 16.9375C13.0241 16.1802 12.3805 15.7151 11.25 14.9688C9.94389 14.1126 10.7849 13.6433 11.5312 12.875C11.7288 12.6774 15.0904 9.58689 15.1562 9.3125C15.1672 9.27957 15.1706 9.1596 15.0938 9.09375C15.0169 9.0279 14.9003 9.04055 14.8125 9.0625C14.6918 9.08445 12.8703 10.3244 9.28125 12.75C8.75442 13.1122 8.2718 13.2922 7.84375 13.2812C7.37179 13.2703 6.46174 13.0008 5.78125 12.7812C4.95807 12.5178 4.32012 12.3672 4.375 11.9062C4.40793 11.6648 4.72911 11.4399 5.34375 11.1875C9.18525 9.51919 11.7471 8.41281 13.0312 7.875C16.6862 6.34938 17.4436 6.07348 17.9375 6.0625Z" fill="#ffffff" fill-rule="evenodd" opacity="1" stroke="none"/>
</g>
</svg>
